<?xml version="1.0" encoding="utf-8"?>
<!-- Generator: Adobe Illustrator 19.2.1, SVG Export Plug-In . SVG Version: 6.00 Build 0)  -->
<svg version="1.1" id="Слой_1" xmlns="http://www.w3.org/2000/svg" xmlns:xlink="http://www.w3.org/1999/xlink" x="0px" y="0px"
	 viewBox="0 0 1000 545.4" style="enable-background:new 0 0 1000 545.4;" xml:space="preserve">
<style type="text/css">
	.st0{fill:#C1232A;}
</style>
<g>
	<g>
		<g>
			<g>
				<g>
					<path d="M0,474.6l34.4,36.7l34.4-36.7v70.8H57.4v-43l-23,24.8l-23-24.8v43H0V474.6z"/>
					<path d="M81.3,510.4c0-20.2,16-35.8,35.8-35.8c19.9,0,35.8,15.6,35.8,35.8c0,20.2-15.9,35.8-35.8,35.8
						C97.3,546.2,81.3,530.6,81.3,510.4z M141.3,510.4c0-14-10.3-24.9-24.1-24.9c-13.8,0-24.1,10.9-24.1,24.9
						c0,14,10.4,24.9,24.1,24.9C130.9,535.4,141.3,524.4,141.3,510.4z"/>
					<path d="M165.4,475.4h22.2c20.9,0,36.7,15.2,36.7,35s-15.8,35-36.7,35h-22.2V475.4z M187.6,534.8c15.1,0,25-10.5,25-24.3
						c0-13.8-10-24.3-25-24.3h-10.7v48.7H187.6z"/>
					<path d="M236.8,475.4h41.5v11.2h-30.1v17.7h24.1v11h-24.1v18.7h30.1v11.2h-41.5V475.4z"/>
					<path d="M309.4,515.6h-6.6v29.8h-11.4v-70h22.7c12.9,0,22.3,8.3,22.3,20.1c0,9.1-5.4,16.3-14.4,19l22.3,30.8h-13.7L309.4,515.6
						z M313,505.7c7.9,0,11.7-3.8,11.7-9.8c0-6-3.8-10-11.7-10h-10.2v19.7H313z"/>
					<path d="M365.1,500.8v44.6h-11.4v-70.8l47.8,45.4v-44.6h11.4v70.8L365.1,500.8z"/>
					<path class="st0" d="M476.8,475.4h11.4v70h-11.4V475.4z"/>
					<path class="st0" d="M517.1,486.7h-18v-11.2h47.6v11.2h-18.1v58.7h-11.4V486.7z"/>
					<path d="M598.9,534.3l8.7-7.3c3.3,4.4,8.6,8.4,14.8,8.4c6.8,0,10.7-3.1,10.7-8.1c0-5.2-3.2-8.3-10.2-11.3l-5.5-2.4
						c-10.5-4.6-15.8-11.4-15.8-20.4c0-11.2,10.2-18.5,20.8-18.5c8.2,0,14.5,2.7,19.6,8.9l-7.9,8.2c-3.6-4.3-6.8-6.2-11.8-6.2
						c-4.7,0-9.3,2.8-9.3,7.6c0,4.6,3.1,7.7,10.2,10.7l5.4,2.5c9.6,4.2,16.1,10.3,16.1,20c0,11.8-8.8,19.9-22.3,19.9
						C611.8,546.2,603.3,541.5,598.9,534.3z"/>
					<path d="M652.7,510.4c0-20.2,16-35.8,35.8-35.8c9.9,0,18.3,3.4,24.7,10.2l-7.4,8.1c-4.3-4.6-10.5-7.4-17.3-7.4
						c-13.8,0-24.1,10.9-24.1,24.9c0,14,10.4,24.9,24.1,24.9c6.8,0,13-2.8,17.3-7.4l7.4,8.1c-6.4,6.7-14.9,10.2-24.7,10.2
						C668.7,546.2,652.7,530.6,652.7,510.4z"/>
					<path d="M724.9,475.4h11.4v29H771v-29h11.4v70H771v-30h-34.7v30h-11.4V475.4z"/>
					<path d="M795,510.4c0-20.2,16-35.8,35.8-35.8c19.9,0,35.8,15.6,35.8,35.8c0,20.2-15.9,35.8-35.8,35.8
						C810.9,546.2,795,530.6,795,510.4z M854.9,510.4c0-14-10.3-24.9-24.1-24.9c-13.8,0-24.1,10.9-24.1,24.9
						c0,14,10.4,24.9,24.1,24.9C844.5,535.4,854.9,524.4,854.9,510.4z"/>
					<path d="M875,510.4c0-20.2,16-35.8,35.8-35.8c19.9,0,35.8,15.6,35.8,35.8c0,20.2-15.9,35.8-35.8,35.8
						C891,546.2,875,530.6,875,510.4z M934.9,510.4c0-14-10.3-24.9-24.1-24.9c-13.8,0-24.1,10.9-24.1,24.9c0,14,10.4,24.9,24.1,24.9
						C924.6,535.4,934.9,524.4,934.9,510.4z"/>
					<path d="M959.1,475.4h11.4v58.6h29.5v11.3h-40.9V475.4z"/>
				</g>
			</g>
		</g>
	</g>
	<g>
		<g>
			<g>
				<path d="M497.4,281.7l100.9-95.8v-45.8H435v-37.9h123.4v22.5h40V64.2H395V178h155l-52.7,50l-37.9-36
					c-19.8,0.2-39.5,0.4-59.3,0.6C432.6,222.4,465,252,497.4,281.7z"/>
				<g>
					<g>
						<polygon class="st0" points="639.5,253.6 679.4,214.9 679.4,419.6 639.5,419.6 639.5,379.6 						"/>
					</g>
				</g>
				<g>
					<polygon points="496.6,309.7 351.8,169.4 351.8,64.2 311.9,64.2 311.9,186.3 496.7,365.5 640,225.3 640,169.4 					"/>
					<polygon class="st0" points="640,64.2 640,169.4 640,225.3 680,186.2 680,64.2 					"/>
				</g>
			</g>
			
				<rect x="598.3" y="379.4" transform="matrix(-1 -4.507695e-011 4.507695e-011 -1 1318.9304 798.9494)" class="st0" width="122.4" height="40.2"/>
		</g>
		<path class="st0" d="M659.5,44.2L659.5,44.2c11,0,20-8.9,20-20v0c0-11-8.9-20-20-20h0c-11,0-20,8.9-20,20v0
			C639.5,35.3,648.4,44.2,659.5,44.2z"/>
		<g>
			<g>
				<polygon points="351.8,253.6 311.9,214.9 311.9,419.6 351.8,419.6 351.8,379.6 				"/>
			</g>
		</g>
	</g>
</g>
</svg>
