<?xml version="1.0" encoding="utf-8"?>
<!-- Generator: Adobe Illustrator 19.2.1, SVG Export Plug-In . SVG Version: 6.00 Build 0)  -->
<svg version="1.1" id="Слой_1" xmlns="http://www.w3.org/2000/svg" xmlns:xlink="http://www.w3.org/1999/xlink" x="0px" y="0px"
	 viewBox="0 0 532.1 545.4" style="enable-background:new 0 0 532.1 545.4;" xml:space="preserve">
<style type="text/css">
	.st0{fill:#C1232A;}
</style>
<g>
	<g>
		<g>
			<g>
				<path d="M241.5,363.6l131.4-124.7v-59.6H160.3V130h160.6v29.3H373V80.4H108.2v148.1H310l-68.6,65.1l-49.3-46.8
					c-25.8,0.3-51.4,0.5-77.2,0.8C157.2,286.4,199.4,324.9,241.5,363.6z"/>
				<g>
					<g>
						<polygon class="st0" points="426.5,327 478.5,276.6 478.5,543.1 426.5,543.1 426.5,491 						"/>
					</g>
				</g>
				<g>
					<polygon points="240.5,400 52,217.4 52,80.4 0,80.4 0,239.4 240.6,472.7 427.2,290.1 427.2,217.4 					"/>
					<polygon class="st0" points="427.2,80.4 427.2,217.4 427.2,290.1 479.3,239.2 479.3,80.4 					"/>
				</g>
			</g>
			<rect x="372.8" y="490.7" class="st0" width="159.3" height="52.3"/>
		</g>
		<path class="st0" d="M452.6,54.4L452.6,54.4c14.3,0,26-11.6,26-26l0,0c0-14.3-11.6-26-26-26l0,0c-14.3,0-26,11.6-26,26l0,0
			C426.5,42.8,438.1,54.4,452.6,54.4z"/>
		<g>
			<g>
				<polygon points="52,327 0,276.6 0,543.1 52,543.1 52,491 				"/>
			</g>
		</g>
	</g>
</g>
</svg>
