<?xml version="1.0" encoding="utf-8"?>
<!-- Generator: Adobe Illustrator 18.0.0, SVG Export Plug-In . SVG Version: 6.00 Build 0)  -->
<!DOCTYPE svg PUBLIC "-//W3C//DTD SVG 1.1//EN" "http://www.w3.org/Graphics/SVG/1.1/DTD/svg11.dtd">
<svg version="1.1" id="Layer_1" xmlns="http://www.w3.org/2000/svg" xmlns:xlink="http://www.w3.org/1999/xlink" x="0px" y="0px"
	 viewBox="0 0 64 64" enable-background="new 0 0 64 64" xml:space="preserve">
<g>
	<g>
		<path d="M51,61.7l-8-5.3l-8,5.3V52H4c-2.2,0-4-1.8-4-4V8c0-2.2,1.8-4,4-4h56c2.2,0,4,1.8,4,4v40c0,2.2-1.8,4-4,4h-9V61.7z
			 M43,51.6l4,2.7v-7.9c-2.5,0.9-5.5,0.9-8,0v7.9L43,51.6z M51,48h9V8H4v40h31v-4.1c-2.5-2.2-4-5.4-4-8.9c0-6.6,5.4-12,12-12
			s12,5.4,12,12c0,3.5-1.5,6.7-4,8.9V48z M43,27c-4.4,0-8,3.6-8,8s3.6,8,8,8s8-3.6,8-8S47.4,27,43,27z M26,25H10v-4h16V25z M54,17
			H10v-4h44V17z"/>
	</g>
</g>
</svg>
